<svg width="43" height="26" fill="none" xmlns="http://www.w3.org/2000/svg"><path fill-rule="evenodd" clip-rule="evenodd" d="M26.522 19.13h15.142c.504 0 .914.397.914.886v5.38a.613.613 0 01-.623.604.614.614 0 01-.624-.604v-1.963h-6.697a.614.614 0 01-.623-.604c0-.334.279-.605.623-.605h6.697v-1.886H26.52v1.886h5.574c.345 0 .624.271.624.605 0 .334-.28.604-.624.604h-5.573v1.107c0 .609-.513 1.104-1.143 1.104H13.26C5.949 25.644 0 19.892 0 12.822 0 5.752 5.949 0 13.26 0c5.842 0 10.813 3.67 12.576 8.751h2.255c.543 0 .984.385 1.098.957l.854 4.297c.073.362-.002.697-.21.942-.2.235-.505.365-.86.365h-2.451v3.818zm2.27-5.027L27.97 9.96h-1.78c.217.92.333 1.879.333 2.862v1.281h2.27zm-27.528-.676h2.402c.168 0 .398-.015.59-.202.206-.204.2-.446.196-.575a2.077 2.077 0 010-.143 8.286 8.286 0 011.54-4.506.593.593 0 00-.159-.84.636.636 0 00-.868.154 9.471 9.471 0 00-1.747 4.903H1.264c.315-5.924 5.245-10.69 11.373-10.994v1.89c-1.964.115-3.83.777-5.408 1.921a.592.592 0 00-.126.846.634.634 0 00.873.122 8.947 8.947 0 014.957-1.693 2.24 2.24 0 01.143 0h.006c.136.002.385.006.593-.193.213-.204.211-.446.21-.622v-2.27c6.335.314 11.39 5.396 11.39 11.597v8.514H13.738c-.607 0-1.102.479-1.102 1.067v2.017C6.51 24.115 1.58 19.35 1.264 13.426zm12.62 11.009h11.39v-1.891h-11.39v1.89z" fill="#000"/><path fill-rule="evenodd" clip-rule="evenodd" d="M19.27 19.933h-5.963c-3.914 0-7.098-2.916-7.098-6.5s3.184-6.5 7.098-6.5c3.912 0 7.095 2.916 7.095 6.5v5.46c0 .574-.507 1.04-1.131 1.04zm-.129-6.5c0-2.946-2.617-5.342-5.834-5.342-3.218 0-5.836 2.396-5.836 5.341 0 2.947 2.618 5.344 5.836 5.344h5.834v-5.344z" fill="#000"/><path fill-rule="evenodd" clip-rule="evenodd" d="M15.573 15.6h-4.535c-.706 0-1.28-.489-1.28-1.09v-2.156c0-.6.574-1.087 1.28-1.087h4.535c.706 0 1.28.488 1.28 1.087v2.156c0 .601-.574 1.09-1.28 1.09zm-.144-3.123h-4.247v1.912h4.247v-1.912z" fill="#000"/></svg>